<?xml version="1.0" encoding="UTF-8"?>
<svg version="1.1" xmlns="http://www.w3.org/2000/svg" width="113" height="103">
<path d="M0 0 C-0.04125 0.7425 -0.0825 1.485 -0.125 2.25 C0.00543638 5.11960046 0.6545235 6.52093306 2 9 C1.43152344 9.17015625 0.86304688 9.3403125 0.27734375 9.515625 C-10.40981848 12.86532066 -10.40981848 12.86532066 -18.3125 20.1875 C-19.77537673 22.62562789 -21.12590152 24.22409236 -23.0625 26.25 C-26.50598687 30.19762018 -27.4454449 33.86170041 -28 39 C-28.0825 39.73347656 -28.165 40.46695313 -28.25 41.22265625 C-28.76366641 50.32418289 -24.07511478 58.14085007 -20 66 C-19.35748291 65.78778809 -18.71496582 65.57557617 -18.05297852 65.35693359 C-10.57028629 63.07788004 -3.73023288 62.54301917 4.0625 62.625 C5.16916016 62.61339844 6.27582031 62.60179687 7.41601562 62.58984375 C14.43339099 62.61471336 20.41564702 63.55626522 27 66 C27.27585937 65.29230469 27.55171875 64.58460937 27.8359375 63.85546875 C28.60722741 61.96347907 29.42489541 60.08969377 30.2890625 58.23828125 C33.33543494 51.56654746 34.88888628 46.31529384 34 39 C33.90460938 38.20464844 33.80921875 37.40929688 33.7109375 36.58984375 C32.61008585 30.12503846 29.9676504 26.76298486 25.1875 22.3125 C24 21 24 21 24 18 C23.278125 17.72285156 22.55625 17.44570313 21.8125 17.16015625 C18.25509699 15.69272751 14.90272984 13.91284368 11.5 12.12109375 C8.98724994 10.99428239 6.71132183 10.43090651 4 10 C4 9.01 4 8.02 4 7 C4.66 7 5.32 7 6 7 C6 5.02 6 3.04 6 1 C14.77779182 2.07483165 21.45918808 4.51997115 29 9 C29 9.66 29 10.32 29 11 C31.33214148 12.20628008 33.49642139 13.1654738 36 14 C40.20914335 19.02852325 46 27.20294076 46 34 C46.66 34 47.32 34 48 34 C50.17374038 48.10955122 47.19797349 57.49712036 38.6875 69.1875 C38.01074219 70.04730469 37.33398438 70.90710938 36.63671875 71.79296875 C34.83087095 73.98889027 34.83087095 73.98889027 34 77 C34.66 77 35.32 77 36 77 C36 78.32 36 79.64 36 81 C36.67546875 81.12117188 37.3509375 81.24234375 38.046875 81.3671875 C38.93890625 81.53476563 39.8309375 81.70234375 40.75 81.875 C41.63171875 82.03742188 42.5134375 82.19984375 43.421875 82.3671875 C45.86947744 82.96796264 47.80599857 83.77997117 50 85 C49.505 86.485 49.505 86.485 49 88 C46.9375 88.6875 46.9375 88.6875 45 89 C45.66 90.98 46.32 92.96 47 95 C39.25 95.125 39.25 95.125 37 94 C34.79733684 93.61212744 32.58775432 93.26290505 30.375 92.9375 C28.59222656 92.67259766 28.59222656 92.67259766 26.7734375 92.40234375 C25.85820313 92.26957031 24.94296875 92.13679688 24 92 C23.67 90.68 23.34 89.36 23 88 C22.13955078 88.2165625 22.13955078 88.2165625 21.26171875 88.4375 C8.86257526 91.14687278 -4.70784905 91.22417074 -17 88 C-17.1959375 88.63550781 -17.391875 89.27101563 -17.59375 89.92578125 C-19 92 -19 92 -21.96875 92.79296875 C-23.1340625 92.92316406 -24.299375 93.05335937 -25.5 93.1875 C-29.90053763 93.58353191 -29.90053763 93.58353191 -34 95 C-36.3329866 95.04022391 -38.66706666 95.04320247 -41 95 C-40.34 93.02 -39.68 91.04 -39 89 C-40.65 88.34 -42.3 87.68 -44 87 C-43.4375 85.125 -43.4375 85.125 -42 83 C-38.10554113 81.55760783 -35.16477964 81 -31 81 C-31 79.68 -31 78.36 -31 77 C-29.515 76.01 -29.515 76.01 -28 75 C-30.56529936 71.03172797 -30.56529936 71.03172797 -33.42578125 67.27734375 C-40.15639193 59.08582533 -43.68206338 50.29011529 -42.8125 39.6875 C-42.57096228 37.45496909 -42.31067817 35.22396353 -42 33 C-41.34 33 -40.68 33 -40 33 C-39.79503906 32.37351563 -39.59007812 31.74703125 -39.37890625 31.1015625 C-39.10949219 30.28429687 -38.84007812 29.46703125 -38.5625 28.625 C-38.16224609 27.40683594 -38.16224609 27.40683594 -37.75390625 26.1640625 C-37 24 -37 24 -36 22 C-35.34 22 -34.68 22 -34 22 C-33.566875 20.88625 -33.566875 20.88625 -33.125 19.75 C-32.568125 18.38875 -32.568125 18.38875 -32 17 C-31.62875 15.948125 -31.62875 15.948125 -31.25 14.875 C-29.42197928 12.13296893 -26.94013408 11.38006294 -24 10 C-23.525625 9.525625 -23.05125 9.05125 -22.5625 8.5625 C-16.95344787 2.95344787 -7.81740104 0 0 0 Z " fill="#3D7943" transform="translate(54,3)"/>
<path d="M0 0 C2 1 2 1 4 4 C6.58380177 4.25030977 6.58380177 4.25030977 9 4 C9 4.66 9 5.32 9 6 C9.99 6.33 10.98 6.66 12 7 C12.875 8.8125 12.875 8.8125 13 11 C12.02248365 12.34990354 11.01800576 13.68036291 10 15 C9.29187186 17.32108669 8.61975848 19.65377147 8 22 C7.67 22.33 7.34 22.66 7 23 C6.76807135 24.51469448 6.58784762 26.03754562 6.4375 27.5625 C6.35371094 28.38878906 6.26992187 29.21507813 6.18359375 30.06640625 C6.09271484 31.02353516 6.09271484 31.02353516 6 32 C7.485 32.495 7.485 32.495 9 33 C10.375 36.25 10.375 36.25 11 40 C9.5625 42.75 9.5625 42.75 8 45 C8.33 45.99 8.66 46.98 9 48 C8.67 48.66 8.34 49.32 8 50 C0.41 50 -7.18 50 -15 50 C-16 46 -16 46 -16 44 C-16.391875 43.0925 -16.78375 42.185 -17.1875 41.25 C-18 38 -18 38 -16.625 34.625 C-16.08875 33.75875 -15.5525 32.8925 -15 32 C-14.34 32 -13.68 32 -13 32 C-13.45823576 26.2262294 -14.37520291 21.28354043 -16.37890625 15.84765625 C-17 14 -17 14 -17 12 C-17.66 12 -18.32 12 -19 12 C-18.8125 9.1875 -18.8125 9.1875 -18 6 C-15.6875 4.0625 -15.6875 4.0625 -13 3 C-10.6875 3.3125 -10.6875 3.3125 -9 4 C-9 3.01 -9 2.02 -9 1 C-5.77390955 -0.07536348 -3.37822416 -0.14375422 0 0 Z M-5 45 C-5 45.33 -5 45.66 -5 46 C-1.37 46 2.26 46 6 46 C6 45.67 6 45.34 6 45 C2.37 45 -1.26 45 -5 45 Z " fill="#A28C66" transform="translate(61,15)"/>
<path d="M0 0 C8.77779182 1.07483165 15.45918808 3.51997115 23 8 C23 8.66 23 9.32 23 10 C25.33214148 11.20628008 27.49642139 12.1654738 30 13 C34.20914335 18.02852325 40 26.20294076 40 33 C40.66 33 41.32 33 42 33 C41.67 36.63 41.34 40.26 41 44 C40.67 44 40.34 44 40 44 C40 41.36 40 38.72 40 36 C37.81668311 37.76136355 37.81668311 37.76136355 37.8046875 39.9453125 C37.82789063 40.66460937 37.85109375 41.38390625 37.875 42.125 C37.91625 43.40375 37.9575 44.6825 38 46 C37.67 46 37.34 46 37 46 C36.505 42.535 36.505 42.535 36 39 C35.34 39 34.68 39 34 39 C32.375 37.5 32.375 37.5 31 36 C31.2784375 37.918125 31.2784375 37.918125 31.5625 39.875 C32.125 43.75 32.125 43.75 31 46 C30.64080679 47.99551782 30.30503431 49.99548879 30 52 C29.67 52 29.34 52 29 52 C28.97083496 51.40574219 28.94166992 50.81148437 28.91162109 50.19921875 C28.76112756 47.46374621 28.56837308 44.73276296 28.375 42 C28.32988281 41.06542969 28.28476563 40.13085938 28.23828125 39.16796875 C27.64322641 31.43225578 25.0501426 26.66135693 19.30615234 21.46875 C18 20 18 20 18 17 C17.278125 16.72285156 16.55625 16.44570313 15.8125 16.16015625 C12.25509699 14.69272751 8.90272984 12.91284368 5.5 11.12109375 C2.98724994 9.99428239 0.71132183 9.43090651 -2 9 C-2 8.01 -2 7.02 -2 6 C-1.34 6 -0.68 6 0 6 C0 4.02 0 2.04 0 0 Z " fill="#6C976D" transform="translate(60,4)"/>
<path d="M0 0 C2 1 2 1 4 4 C6.58380177 4.25030977 6.58380177 4.25030977 9 4 C9 4.66 9 5.32 9 6 C9.99 6.33 10.98 6.66 12 7 C12.875 8.8125 12.875 8.8125 13 11 C12.02248365 12.34990354 11.01800576 13.68036291 10 15 C9.29187186 17.32108669 8.61975848 19.65377147 8 22 C7.67 22.33 7.34 22.66 7 23 C6.63239269 25.32817964 6.29758419 27.6618385 6 30 C5.67 30 5.34 30 5 30 C4.34 28.02 3.68 26.04 3 24 C1.948125 24.20625 0.89625 24.4125 -0.1875 24.625 C-4.03837968 25.00377505 -5.72520608 24.96487635 -9 23 C-10.3125 20.875 -10.3125 20.875 -11 19 C-11.66 20.32 -12.32 21.64 -13 23 C-13.66 22.67 -14.32 22.34 -15 22 C-15.6328125 19.71484375 -15.6328125 19.71484375 -16.125 16.9375 C-16.29257812 16.01839844 -16.46015625 15.09929688 -16.6328125 14.15234375 C-16.75398438 13.44207031 -16.87515625 12.73179688 -17 12 C-17.66 12 -18.32 12 -19 12 C-18.8125 9.1875 -18.8125 9.1875 -18 6 C-15.6875 4.0625 -15.6875 4.0625 -13 3 C-10.6875 3.3125 -10.6875 3.3125 -9 4 C-9 3.01 -9 2.02 -9 1 C-5.77390955 -0.07536348 -3.37822416 -0.14375422 0 0 Z " fill="#A6926D" transform="translate(61,15)"/>
<path d="M0 0 C7.02918412 -0.05073645 14.05832095 -0.08574896 21.08764648 -0.10986328 C23.47861496 -0.11991686 25.86957115 -0.13356164 28.26049805 -0.15087891 C31.6984358 -0.1751551 35.13621088 -0.18648965 38.57421875 -0.1953125 C39.64210129 -0.20563507 40.70998383 -0.21595764 41.81022644 -0.22659302 C42.81088638 -0.22674408 43.81154633 -0.22689514 44.8425293 -0.22705078 C45.71967087 -0.231492 46.59681244 -0.23593323 47.50053406 -0.24050903 C50.29849037 0.02872199 52.44991984 0.84559802 55 2 C54.125 6.875 54.125 6.875 53 8 C51.31391034 8.07205511 49.62499341 8.08386068 47.9375 8.0625 C47.01839844 8.05347656 46.09929687 8.04445313 45.15234375 8.03515625 C44.44207031 8.02355469 43.73179688 8.01195313 43 8 C44.32 7.67 45.64 7.34 47 7 C47 5.68 47 4.36 47 3 C45.68 3 44.36 3 43 3 C42.34 3.99 41.68 4.98 41 6 C41 5.01 41 4.02 41 3 C38.69 3.33 36.38 3.66 34 4 C33.67 4.99 33.34 5.98 33 7 C33.66 7 34.32 7 35 7 C35.495 8.485 35.495 8.485 36 10 C32.06410933 11.29146413 28.09264868 11.14724266 24 11.125 C22.93265625 11.13080078 22.93265625 11.13080078 21.84375 11.13671875 C18.39405063 11.13028274 15.31403787 10.94793426 12 10 C9.66699067 9.96111651 7.33290199 9.9551365 5 10 C4.67 11.32 4.34 12.64 4 14 C-2.07246147 15.98284456 -7.72792299 17.00706464 -14 15 C-13.67 13.35 -13.34 11.7 -13 10 C-14.65 9.67 -16.3 9.34 -18 9 C-15.57869669 6.57869669 -14.19888623 6.47159496 -10.875 5.875 C-9.50988281 5.62363281 -9.50988281 5.62363281 -8.1171875 5.3671875 C-7.06917969 5.18542969 -7.06917969 5.18542969 -6 5 C-5.67 3.68 -5.34 2.36 -5 1 C-2.625 1.3125 -2.625 1.3125 0 2 C0.99 3.485 0.99 3.485 2 5 C5.56769552 5.73606499 5.56769552 5.73606499 9 6 C9.33 5.34 9.66 4.68 10 4 C10.391875 4.495 10.78375 4.99 11.1875 5.5 C13.55091715 7.45593143 15.01435003 7.24207973 18 7 C18 7.66 18 8.32 18 9 C19.32 9 20.64 9 22 9 C21.505 6.525 21.505 6.525 21 4 C19.49759766 4.04640625 19.49759766 4.04640625 17.96484375 4.09375 C13.95649757 3.99897137 10.46487567 3.39197158 6.5625 2.5 C5.32628906 2.2215625 4.09007812 1.943125 2.81640625 1.65625 C1.88699219 1.4396875 0.95757812 1.223125 0 1 C0 0.67 0 0.34 0 0 Z " fill="#DEE8DF" transform="translate(32,80)"/>
<path d="M0 0 C-0.04125 0.7425 -0.0825 1.485 -0.125 2.25 C0.00543638 5.11960046 0.6545235 6.52093306 2 9 C1.43152344 9.17015625 0.86304688 9.3403125 0.27734375 9.515625 C-10.40981848 12.86532066 -10.40981848 12.86532066 -18.3125 20.1875 C-19.77537673 22.62562789 -21.12590152 24.22409236 -23.0625 26.25 C-26.49150088 30.10443523 -27.33895216 33.97375691 -28 39 C-28.33 39 -28.66 39 -29 39 C-29 37.35 -29 35.7 -29 34 C-30.11375 34.350625 -31.2275 34.70125 -32.375 35.0625 C-36 36 -36 36 -38 35 C-37.85915204 33.20793453 -37.71216299 31.41635083 -37.5625 29.625 C-37.48128906 28.62726562 -37.40007813 27.62953125 -37.31640625 26.6015625 C-37 24 -37 24 -36 22 C-35.34 22 -34.68 22 -34 22 C-33.71125 21.2575 -33.4225 20.515 -33.125 19.75 C-32.568125 18.38875 -32.568125 18.38875 -32 17 C-31.7525 16.29875 -31.505 15.5975 -31.25 14.875 C-29.42197928 12.13296893 -26.94013408 11.38006294 -24 10 C-23.525625 9.525625 -23.05125 9.05125 -22.5625 8.5625 C-16.95344787 2.95344787 -7.81740104 0 0 0 Z " fill="#3B7842" transform="translate(54,3)"/>
<path d="M0 0 C1.3293457 0.00483398 1.3293457 0.00483398 2.68554688 0.00976562 C3.59755859 0.01814453 4.50957031 0.02652344 5.44921875 0.03515625 C6.38056641 0.03966797 7.31191406 0.04417969 8.27148438 0.04882812 C10.55996248 0.06056391 12.84830683 0.07698262 15.13671875 0.09765625 C14.93046875 0.71640625 14.72421875 1.33515625 14.51171875 1.97265625 C14.32609375 3.02453125 14.32609375 3.02453125 14.13671875 4.09765625 C14.79671875 4.75765625 15.45671875 5.41765625 16.13671875 6.09765625 C16.63171875 7.08765625 16.63171875 7.08765625 17.13671875 8.09765625 C18.78671875 7.43765625 20.43671875 6.77765625 22.13671875 6.09765625 C22.13671875 7.08765625 22.13671875 8.07765625 22.13671875 9.09765625 C23.12671875 9.09765625 24.11671875 9.09765625 25.13671875 9.09765625 C25.13671875 7.44765625 25.13671875 5.79765625 25.13671875 4.09765625 C23.48671875 4.09765625 21.83671875 4.09765625 20.13671875 4.09765625 C20.13671875 3.43765625 20.13671875 2.77765625 20.13671875 2.09765625 C25.95943212 1.50045488 30.05765915 3.56941325 35.13671875 6.09765625 C34.47671875 7.74765625 33.81671875 9.39765625 33.13671875 11.09765625 C27.52671875 11.09765625 21.91671875 11.09765625 16.13671875 11.09765625 C16.13671875 11.42765625 16.13671875 11.75765625 16.13671875 12.09765625 C10.19671875 12.09765625 4.25671875 12.09765625 -1.86328125 12.09765625 C-1.86328125 11.43765625 -1.86328125 10.77765625 -1.86328125 10.09765625 C-8.46328125 10.42765625 -15.06328125 10.75765625 -21.86328125 11.09765625 C-22.52328125 9.44765625 -23.18328125 7.79765625 -23.86328125 6.09765625 C-21.63564137 5.28075448 -19.40633265 4.46903753 -17.17578125 3.66015625 C-16.54994141 3.43005859 -15.92410156 3.19996094 -15.27929688 2.96289062 C-10.10931428 1.09520058 -5.49907517 -0.0354779 0 0 Z " fill="#E9F0EA" transform="translate(51.86328125,67.90234375)"/>
<path d="M0 0 C0.66 0.33 1.32 0.66 2 1 C2 1.66 2 2.32 2 3 C3.01320313 3.18175781 3.01320313 3.18175781 4.046875 3.3671875 C4.93890625 3.53476563 5.8309375 3.70234375 6.75 3.875 C7.63171875 4.03742188 8.5134375 4.19984375 9.421875 4.3671875 C11.86947744 4.96796264 13.80599857 5.77997117 16 7 C15.67 7.99 15.34 8.98 15 10 C12.9375 10.6875 12.9375 10.6875 11 11 C11.99 13.97 11.99 13.97 13 17 C5.25 17.125 5.25 17.125 3 16 C0.79733684 15.61212744 -1.41224568 15.26290505 -3.625 14.9375 C-4.81351563 14.76089844 -6.00203125 14.58429688 -7.2265625 14.40234375 C-8.14179687 14.26957031 -9.05703125 14.13679688 -10 14 C-10.495 12.02 -10.495 12.02 -11 10 C-11.86044922 10.2165625 -11.86044922 10.2165625 -12.73828125 10.4375 C-25.9773657 13.33041071 -40.10247363 13.32491902 -53 9 C-53 8.67 -53 8.34 -53 8 C-51.58344207 7.9727585 -50.16672955 7.95349533 -48.75 7.9375 C-47.56664062 7.92009766 -47.56664062 7.92009766 -46.359375 7.90234375 C-44 8 -44 8 -42.20703125 8.49609375 C-38.81043631 9.2715995 -35.40245919 9.14371265 -31.9375 9.125 C-31.21755859 9.12886719 -30.49761719 9.13273437 -29.75585938 9.13671875 C-26.57291361 9.13080799 -24.04052138 9.01350713 -21 8 C-21 7.34 -21 6.68 -21 6 C-21.66 6 -22.32 6 -23 6 C-22.67 4.68 -22.34 3.36 -22 2 C-20.700625 2.020625 -19.40125 2.04125 -18.0625 2.0625 C-16.70834367 2.08399454 -15.35243917 2.07148199 -14 2 C-13.67 1.67 -13.34 1.34 -13 1 C-11.33382885 0.95936168 -9.66611905 0.957279 -8 1 C-8.33 2.65 -8.66 4.3 -9 6 C-7.02 6 -5.04 6 -3 6 C-2.01 4.02 -1.02 2.04 0 0 Z " fill="#477C46" transform="translate(88,81)"/>
<path d="M0 0 C0.99 0.33 1.98 0.66 3 1 C2.43410156 1.75925781 1.86820312 2.51851563 1.28515625 3.30078125 C0.18494141 4.79158203 0.18494141 4.79158203 -0.9375 6.3125 C-2.03384766 7.79169922 -2.03384766 7.79169922 -3.15234375 9.30078125 C-5.12530656 11.91771863 -5.12530656 11.91771863 -6 15 C-5.34 15 -4.68 15 -4 15 C-4.66 16.32 -5.32 17.64 -6 19 C-6.99 18.01 -6.99 18.01 -8 17 C-10.94969485 16.00237286 -13.6704845 15.87814646 -16.76855469 15.88647461 C-18.17956451 15.88658791 -18.17956451 15.88658791 -19.61907959 15.88670349 C-20.62650208 15.89186478 -21.63392456 15.89702606 -22.671875 15.90234375 C-23.70942932 15.9037587 -24.74698364 15.90517365 -25.815979 15.90663147 C-29.12734876 15.91222553 -32.43865071 15.92477697 -35.75 15.9375 C-37.99609277 15.94251577 -40.24218661 15.94707854 -42.48828125 15.95117188 C-47.9922106 15.96219301 -53.49610046 15.97892526 -59 16 C-57.25340747 16.33623132 -55.50581144 16.66725234 -53.7578125 16.99609375 C-52.78473145 17.18099365 -51.81165039 17.36589355 -50.80908203 17.55639648 C-47.46959508 18.08376028 -44.37046199 18.07327091 -41 18 C-40 19 -40 19 -39.9375 21.5625 C-39.958125 22.366875 -39.97875 23.17125 -40 24 C-41.32 24 -42.64 24 -44 24 C-44 23.34 -44 22.68 -44 22 C-44.7425 22.20625 -45.485 22.4125 -46.25 22.625 C-49 23 -49 23 -50.8125 22.0625 C-54.18941835 20.42228252 -57.27411082 20.87580369 -61 21 C-61.66 19.68 -62.32 18.36 -63 17 C-64.32 17 -65.64 17 -67 17 C-67.33 17.99 -67.66 18.98 -68 20 C-71.11612257 22.07741505 -74.3351268 22.50024456 -78 23 C-77.01 23.66 -76.02 24.32 -75 25 C-75.33 26.65 -75.66 28.3 -76 30 C-74.68 30 -73.36 30 -72 30 C-72 30.66 -72 31.32 -72 32 C-74.95664519 33.4783226 -77.74229737 33.06032783 -81 33 C-80.34 31.02 -79.68 29.04 -79 27 C-81.475 26.01 -81.475 26.01 -84 25 C-83.4375 23.125 -83.4375 23.125 -82 21 C-78.10554113 19.55760783 -75.16477964 19 -71 19 C-71 17.68 -71 16.36 -71 15 C-70.01 14.34 -69.02 13.68 -68 13 C-68.66 11.35 -69.32 9.7 -70 8 C-69.01 8.33 -68.02 8.66 -67 9 C-67 9.66 -67 10.32 -67 11 C-66.34 11 -65.68 11 -65 11 C-64.67 11.66 -64.34 12.32 -64 13 C-63.14921875 12.9278125 -62.2984375 12.855625 -61.421875 12.78125 C-50.60274366 11.95255058 -39.84699092 11.90089044 -29 12 C-29 12.33 -29 12.66 -29 13 C-33.95 13 -38.9 13 -44 13 C-44 13.66 -44 14.32 -44 15 C-36.08 14.505 -36.08 14.505 -28 14 C-28 13.67 -28 13.34 -28 13 C-21.73 13.33 -15.46 13.66 -9 14 C-8.34 12.35 -7.68 10.7 -7 9 C-8.32 8.67 -9.64 8.34 -11 8 C-11.495 6.02 -11.495 6.02 -12 4 C-11.505 4.99 -11.505 4.99 -11 6 C-7.66857722 6.50125283 -7.66857722 6.50125283 -4 6 C-1.50459629 3.13384514 -1.50459629 3.13384514 0 0 Z " fill="#50804F" transform="translate(94,65)"/>
<path d="M0 0 C2.475 0.99 2.475 0.99 5 2 C5.33 1.67 5.66 1.34 6 1 C6.99 0.67 7.98 0.34 9 0 C11.32991922 3.72787076 12.29371124 7.64328328 12 12 C10.77395701 16.22827645 9.33138135 20.25420734 7 24 C4.88671875 24.6953125 4.88671875 24.6953125 3 25 C2.31867549 26.66072849 1.65257873 28.327767 1 30 C-0.8125 31.375 -0.8125 31.375 -3 32 C-5.5625 31.625 -5.5625 31.625 -8 31 C-8.99 31 -9.98 31 -11 31 C-9.04249774 24.23771948 -5.89976443 17.84964665 -2 12 C-1.67 12.66 -1.34 13.32 -1 14 C-1.020625 13.236875 -1.04125 12.47375 -1.0625 11.6875 C-1 9 -1 9 0 6 C0.03920815 4.00038436 0.04443347 1.99950636 0 0 Z " fill="#78A580" transform="translate(91,40)"/>
<path d="M0 0 C2 1 2 1 4 4 C6.58380177 4.25030977 6.58380177 4.25030977 9 4 C9 4.66 9 5.32 9 6 C9.99 6.33 10.98 6.66 12 7 C12 7.99 12 8.98 12 10 C10.68 10 9.36 10 8 10 C8.33 11.32 8.66 12.64 9 14 C7 15 7 15 4 15 C3.34 14.67 2.68 14.34 2 14 C1.375 11.9375 1.375 11.9375 1 10 C0.01 10.495 0.01 10.495 -1 11 C-2.99551782 11.35919321 -4.99548879 11.69496569 -7 12 C-7.33 10.35 -7.66 8.7 -8 7 C-8.66 8.32 -9.32 9.64 -10 11 C-9.34 11.33 -8.68 11.66 -8 12 C-8.66 12 -9.32 12 -10 12 C-10.33 12.66 -10.66 13.32 -11 14 C-12.66666667 12.33333333 -14.33333333 10.66666667 -16 9 C-15.71395102 7.32457024 -15.38218767 5.65614657 -15 4 C-11.25 2.875 -11.25 2.875 -9 4 C-9 3.01 -9 2.02 -9 1 C-5.77390955 -0.07536348 -3.37822416 -0.14375422 0 0 Z " fill="#B8A88B" transform="translate(61,15)"/>
<path d="M0 0 C0.598125 0.763125 1.19625 1.52625 1.8125 2.3125 C3.78025049 4.88239737 3.78025049 4.88239737 5.53125 6.34375 C7.43200442 8.48715392 7.93726054 10.43662198 8.6875 13.1875 C9.06455078 14.53908203 9.06455078 14.53908203 9.44921875 15.91796875 C9.63097656 16.60503906 9.81273438 17.29210937 10 18 C10.66 18 11.32 18 12 18 C11.67 21.63 11.34 25.26 11 29 C10.67 29 10.34 29 10 29 C10 26.36 10 23.72 10 21 C7.81668311 22.76136355 7.81668311 22.76136355 7.8046875 24.9453125 C7.82789062 25.66460937 7.85109375 26.38390625 7.875 27.125 C7.91625 28.40375 7.9575 29.6825 8 31 C7.67 31 7.34 31 7 31 C6.67 28.69 6.34 26.38 6 24 C5.34 24 4.68 24 4 24 C2.375 22.5 2.375 22.5 1 21 C1.185625 22.27875 1.37125 23.5575 1.5625 24.875 C2.125 28.75 2.125 28.75 1 31 C0.64080679 32.99551782 0.30503431 34.99548879 0 37 C-0.33 37 -0.66 37 -1 37 C-1.0501123 36.37955811 -1.10022461 35.75911621 -1.15185547 35.11987305 C-1.38398505 32.3082627 -1.62933693 29.49795882 -1.875 26.6875 C-1.95363281 25.71103516 -2.03226562 24.73457031 -2.11328125 23.72851562 C-2.19707031 22.79072266 -2.28085938 21.85292969 -2.3671875 20.88671875 C-2.44050293 20.02264404 -2.51381836 19.15856934 -2.58935547 18.26831055 C-2.89393458 15.72835763 -2.89393458 15.72835763 -5 13 C-5 12.01 -5 11.02 -5 10 C-1.535 9.505 -1.535 9.505 2 9 C1.67 8.2575 1.34 7.515 1 6.75 C0 4 0 4 0 0 Z " fill="#619164" transform="translate(90,19)"/>
<path d="M0 0 C0.33 0 0.66 0 1 0 C1.19429254 5.53733739 0.575777 9.6423582 -1 15 C-0.67 15.99 -0.34 16.98 0 18 C2.97065509 17.65772428 2.97065509 17.65772428 6 17 C6.33 16.34 6.66 15.68 7 15 C7.763125 15.185625 8.52625 15.37125 9.3125 15.5625 C12.08967375 16.22819173 12.08967375 16.22819173 15 15 C15.33 14.34 15.66 13.68 16 13 C16.33 13.99 16.66 14.98 17 16 C16.01 16 15.02 16 14 16 C14 16.66 14 17.32 14 18 C16.97 17.34 19.94 16.68 23 16 C22.34 17.32 21.68 18.64 21 20 C21.33 20.99 21.66 21.98 22 23 C21.67 23.66 21.34 24.32 21 25 C13.41 25 5.82 25 -2 25 C-3 21 -3 21 -3 19 C-3.391875 18.0925 -3.78375 17.185 -4.1875 16.25 C-5 13 -5 13 -3.625 9.625 C-3.08875 8.75875 -2.5525 7.8925 -2 7 C-1.34 7 -0.68 7 0 7 C0 4.69 0 2.38 0 0 Z M8 20 C8 20.33 8 20.66 8 21 C11.63 21 15.26 21 19 21 C19 20.67 19 20.34 19 20 C15.37 20 11.74 20 8 20 Z " fill="#9A8359" transform="translate(48,40)"/>
<path d="M0 0 C4.34464536 0.60825035 8.67551867 1.26167392 13 2 C12.67 3.65 12.34 5.3 12 7 C13.32 7.66 14.64 8.32 16 9 C14.1875 9.625 14.1875 9.625 12 10 C11.01 9.34 10.02 8.68 9 8 C9 8.66 9 9.32 9 10 C10.45736087 10.19491452 11.91594593 10.38069358 13.375 10.5625 C14.18710938 10.66691406 14.99921875 10.77132813 15.8359375 10.87890625 C18.04899186 11.18237328 18.04899186 11.18237328 20 10 C21.65 11.98 23.3 13.96 25 16 C22.69 15.67 20.38 15.34 18 15 C18.495 15.4125 18.99 15.825 19.5 16.25 C21 18 21 18 21 22 C20.34 22 19.68 22 19 22 C18.938125 21.21625 18.87625 20.4325 18.8125 19.625 C18.544375 18.75875 18.27625 17.8925 18 17 C15.69985796 15.93456584 15.69985796 15.93456584 13 15 C10.48300377 13.73756908 7.991497 12.43302264 5.5 11.12109375 C2.98724994 9.99428239 0.71132183 9.43090651 -2 9 C-2 8.01 -2 7.02 -2 6 C-1.34 6 -0.68 6 0 6 C0 4.02 0 2.04 0 0 Z " fill="#39773B" transform="translate(60,4)"/>
<path d="M0 0 C3 1 3 1 5 3 C5.33 2.34 5.66 1.68 6 1 C6.99 1 7.98 1 9 1 C8.979375 1.969375 8.95875 2.93875 8.9375 3.9375 C8.64381501 6.87465895 8.64381501 6.87465895 10 8 C10.33 7.01 10.66 6.02 11 5 C11.38971999 7.10149011 11.76131477 9.2063482 12.125 11.3125 C12.33382813 12.48425781 12.54265625 13.65601563 12.7578125 14.86328125 C13 18 13 18 11 21 C7.375 21.6875 7.375 21.6875 4 22 C0.8 15.72307692 0.8 15.72307692 1.8125 12.0625 C2.204375 11.381875 2.59625 10.70125 3 10 C2.01 9.67 1.02 9.34 0 9 C0 6.03 0 3.06 0 0 Z " fill="#7EA985" transform="translate(14,39)"/>
<path d="M0 0 C-0.04125 0.7425 -0.0825 1.485 -0.125 2.25 C0.00543638 5.11960046 0.6545235 6.52093306 2 9 C1.41992188 9.18175781 0.83984375 9.36351562 0.2421875 9.55078125 C-4.39147293 11.0418106 -8.69762355 12.68333576 -13 15 C-13 14.34 -13 13.68 -13 13 C-14.32 12.67 -15.64 12.34 -17 12 C-17.103125 11.360625 -17.20625 10.72125 -17.3125 10.0625 C-17.539375 9.381875 -17.76625 8.70125 -18 8 C-18.99 7.67 -19.98 7.34 -21 7 C-14.70158273 2.94101998 -7.59875958 0 0 0 Z " fill="#6A9365" transform="translate(54,3)"/>
<path d="M0 0 C0.99 0.33 1.98 0.66 3 1 C2.43410156 1.75925781 1.86820313 2.51851563 1.28515625 3.30078125 C0.18494141 4.79158203 0.18494141 4.79158203 -0.9375 6.3125 C-1.66839844 7.29863281 -2.39929688 8.28476563 -3.15234375 9.30078125 C-5.12530656 11.91771863 -5.12530656 11.91771863 -6 15 C-5.34 15 -4.68 15 -4 15 C-4.66 16.32 -5.32 17.64 -6 19 C-6.66 18.34 -7.32 17.68 -8 17 C-11.87607674 15.50564423 -16.04635055 15.91095094 -20.1328125 15.97265625 C-21.76041445 15.98531384 -23.38801874 15.99767394 -25.015625 16.00976562 C-27.56290093 16.03444664 -30.1100527 16.06230257 -32.65722656 16.09594727 C-41.69967745 16.20778903 -50.17983095 16.29973733 -59 14 C-59 13.67 -59 13.34 -59 13 C-49.02300197 11.6697336 -39.04385176 11.90497083 -29 12 C-29 12.33 -29 12.66 -29 13 C-33.95 13 -38.9 13 -44 13 C-44 13.66 -44 14.32 -44 15 C-36.08 14.505 -36.08 14.505 -28 14 C-28 13.67 -28 13.34 -28 13 C-21.73 13.33 -15.46 13.66 -9 14 C-8.34 12.35 -7.68 10.7 -7 9 C-8.32 8.67 -9.64 8.34 -11 8 C-11.495 6.02 -11.495 6.02 -12 4 C-11.505 4.99 -11.505 4.99 -11 6 C-7.66857722 6.50125283 -7.66857722 6.50125283 -4 6 C-1.50459629 3.13384514 -1.50459629 3.13384514 0 0 Z " fill="#3A7E49" transform="translate(94,65)"/>
<path d="M0 0 C1.41655793 -0.0272415 2.83327045 -0.04650467 4.25 -0.0625 C5.43335938 -0.07990234 5.43335938 -0.07990234 6.640625 -0.09765625 C9 0 9 0 10.8125 0.49609375 C14.10313497 1.25411502 17.39200168 1.1466945 20.75 1.125 C21.8323291 1.12209961 21.8323291 1.12209961 22.93652344 1.11914062 C26.40774139 1.09085546 29.81439377 1.00951787 33.25 0.5 C38.5031598 -0.20042131 43.70859197 -0.07937112 49 0 C48 3 48 3 46 4 C53.425 4.99 53.425 4.99 61 6 C61 4.68 61 3.36 61 2 C61.495 3.485 61.495 3.485 62 5 C62.66 5 63.32 5 64 5 C64.99 6.98 64.99 6.98 66 9 C58.25 9.125 58.25 9.125 56 8 C53.79733684 7.61212744 51.58775432 7.26290505 49.375 6.9375 C48.18648437 6.76089844 46.99796875 6.58429688 45.7734375 6.40234375 C44.40058594 6.20318359 44.40058594 6.20318359 43 6 C42.505 4.02 42.505 4.02 42 2 C41.13955078 2.2165625 41.13955078 2.2165625 40.26171875 2.4375 C27.0226343 5.33041071 12.89752637 5.32491902 0 1 C0 0.67 0 0.34 0 0 Z " fill="#3D773E" transform="translate(35,89)"/>
<path d="M0 0 C0.495 0.66 0.99 1.32 1.5 2 C5.10340212 4.8827217 7.46985042 4.30200997 12 4 C11.4375 6.875 11.4375 6.875 10 10 C4.25661536 12.47753847 -2.00090624 12.91971 -8 11 C-7.67 9.35 -7.34 7.7 -7 6 C-8.65 5.67 -10.3 5.34 -12 5 C-9.30175965 2.30175965 -6.65099396 1.96078789 -3 1 C-2.01 0.67 -1.02 0.34 0 0 Z " fill="#538756" transform="translate(26,84)"/>
<path d="M0 0 C1 3 1 3 1 4 C3.62113708 4 5.50935112 3.68707555 8 3 C3.375 8.875 3.375 8.875 0 10 C0.51175781 10.39832031 1.02351563 10.79664063 1.55078125 11.20703125 C3 13 3 13 2.85546875 15.26171875 C2.63503906 16.06222656 2.41460937 16.86273438 2.1875 17.6875 C1.97480469 18.49574219 1.76210938 19.30398437 1.54296875 20.13671875 C1.36378906 20.75160156 1.18460938 21.36648437 1 22 C0.67 22 0.34 22 0 22 C0 20.35 0 18.7 0 17 C-1.11375 17.350625 -2.2275 17.70125 -3.375 18.0625 C-7 19 -7 19 -9 18 C-8.91276622 16.22825181 -8.80458345 14.45752623 -8.6875 12.6875 C-8.62949219 11.70136719 -8.57148438 10.71523438 -8.51171875 9.69921875 C-7.94881563 6.73001219 -7.45936633 5.7116255 -5 4 C-4.01 4 -3.02 4 -2 4 C-1.34 2.68 -0.68 1.36 0 0 Z " fill="#75A17A" transform="translate(25,20)"/>
<path d="M0 0 C2.475 0.99 2.475 0.99 5 2 C5.33 1.67 5.66 1.34 6 1 C6.99 0.67 7.98 0.34 9 0 C11.32437774 3.71900438 12.32058564 7.65118612 12 12 C10.62787851 16.14685607 8.89425039 20.06730023 7 24 C6.67 24 6.34 24 6 24 C6.33 20.7 6.66 17.4 7 14 C6.67 14.33 6.34 14.66 6 15 C5.67 14.34 5.34 13.68 5 13 C4.34 13 3.68 13 3 13 C3 13.66 3 14.32 3 15 C2.34 14.67 1.68 14.34 1 14 C1.33 13.01 1.66 12.02 2 11 C1.01 10.67 0.02 10.34 -1 10 C-0.835 9.46375 -0.67 8.9275 -0.5 8.375 C0.09660212 5.54113991 0.0656368 2.8880194 0 0 Z " fill="#457D44" transform="translate(91,40)"/>
<path d="M0 0 C0.763125 0.20625 1.52625 0.4125 2.3125 0.625 C4.3125 6.375 4.3125 6.375 4.3125 8.625 C5.3025 8.955 6.2925 9.285 7.3125 9.625 C8.5 13.1875 8.5 13.1875 9.3125 16.625 C5.80062804 19.03314077 3.58593092 19.99129408 -0.6875 19.625 C-0.6875 18.965 -0.6875 18.305 -0.6875 17.625 C0.3025 17.625 1.2925 17.625 2.3125 17.625 C1.6525 15.975 0.9925 14.325 0.3125 12.625 C1.3025 12.625 2.2925 12.625 3.3125 12.625 C2.01782323 10.56509522 2.01782323 10.56509522 0.3125 8.625 C-0.6775 8.625 -1.6675 8.625 -2.6875 8.625 C-3.0175 9.285 -3.3475 9.945 -3.6875 10.625 C-4.3475 10.625 -5.0075 10.625 -5.6875 10.625 C-5.76846803 9.16757537 -5.82667774 7.70887193 -5.875 6.25 C-5.90980469 5.43789063 -5.94460937 4.62578125 -5.98046875 3.7890625 C-5.88378906 3.07492188 -5.78710938 2.36078125 -5.6875 1.625 C-2.6875 -0.375 -2.6875 -0.375 0 0 Z " fill="#A5916C" transform="translate(62.6875,38.375)"/>
<path d="M0 0 C5.82271337 -0.59720137 9.9209404 1.471757 15 4 C14.34 5.65 13.68 7.3 13 9 C7.39 9 1.78 9 -4 9 C-4 9.33 -4 9.66 -4 10 C-9.94 10 -15.88 10 -22 10 C-22 9.34 -22 8.68 -22 8 C-21.37955811 7.9498877 -20.75911621 7.89977539 -20.11987305 7.84814453 C-17.3082627 7.61601495 -14.49795882 7.37066307 -11.6875 7.125 C-10.22280273 7.00705078 -10.22280273 7.00705078 -8.72851562 6.88671875 C-7.79072266 6.80292969 -6.85292969 6.71914062 -5.88671875 6.6328125 C-5.02264404 6.55949707 -4.15856934 6.48618164 -3.26831055 6.41064453 C-0.72835763 6.10606542 -0.72835763 6.10606542 2 4 C2 4.99 2 5.98 2 7 C2.99 7 3.98 7 5 7 C5 5.35 5 3.7 5 2 C3.35 2 1.7 2 0 2 C0 1.34 0 0.68 0 0 Z " fill="#D9E5DA" transform="translate(72,70)"/>
<path d="M0 0 C1.60294922 0.15275391 1.60294922 0.15275391 3.23828125 0.30859375 C4.45064453 0.43427734 4.45064453 0.43427734 5.6875 0.5625 C5.3575 2.2125 5.0275 3.8625 4.6875 5.5625 C4.130625 5.376875 3.57375 5.19125 3 5 C-0.38818294 4.35899242 -3.1533849 5.25567542 -6.4375 6.125 C-8.3125 6.5625 -8.3125 6.5625 -11.3125 6.5625 C-13.31559329 6.87671071 -15.31621336 7.2076046 -17.3125 7.5625 C-17.3125 5.9125 -17.3125 4.2625 -17.3125 2.5625 C-15.3325 2.5625 -13.3525 2.5625 -11.3125 2.5625 C-11.3125 1.9025 -11.3125 1.2425 -11.3125 0.5625 C-7.36602382 -0.42594951 -4.03857036 -0.39941905 0 0 Z " fill="#80AB89" transform="translate(56.3125,69.4375)"/>
<path d="M0 0 C0.66 0.33 1.32 0.66 2 1 C2 1.99 2 2.98 2 4 C3.65 4.33 5.3 4.66 7 5 C6.67 7.31 6.34 9.62 6 12 C5.34 12 4.68 12 4 12 C3.67 11.01 3.34 10.02 3 9 C2.01 11.31 1.02 13.62 0 16 C1.32 15.67 2.64 15.34 4 15 C3.25 19.75 3.25 19.75 1 22 C-1.475 21.01 -1.475 21.01 -4 20 C-3.67 19.236875 -3.34 18.47375 -3 17.6875 C-1.85179655 13.45349978 -1.93229303 9.84225437 -2.125 5.48828125 C-2 3 -2 3 0 0 Z " fill="#AE9B7A" transform="translate(50,34)"/>
<path d="M0 0 C0.33 1.32 0.66 2.64 1 4 C-0.32 4.33 -1.64 4.66 -3 5 C-3.2236068 7.9254644 -3.2236068 7.9254644 -2 10 C-1.34 10.33 -0.68 10.66 0 11 C-1.65 11.33 -3.3 11.66 -5 12 C-5.33 10.35 -5.66 8.7 -6 7 C-6.66 8.32 -7.32 9.64 -8 11 C-7.34 11.33 -6.68 11.66 -6 12 C-6.66 12 -7.32 12 -8 12 C-8.33 12.66 -8.66 13.32 -9 14 C-10.66666667 12.33333333 -12.33333333 10.66666667 -14 9 C-13.71395102 7.32457024 -13.38218767 5.65614657 -13 4 C-9.25 2.875 -9.25 2.875 -7 4 C-7 3.01 -7 2.02 -7 1 C-4 0 -4 0 0 0 Z " fill="#CEC3AF" transform="translate(59,15)"/>
<path d="M0 0 C1.07378906 0.2165625 2.14757813 0.433125 3.25390625 0.65625 C4.69003672 0.93784421 6.12623851 1.21907484 7.5625 1.5 C8.26697266 1.64308594 8.97144531 1.78617187 9.69726562 1.93359375 C14.20472254 2.80600477 18.39082387 3.04745612 23 3 C24 4 24 4 24.0625 6.5625 C24.041875 7.366875 24.02125 8.17125 24 9 C22.68 9 21.36 9 20 9 C20 8.34 20 7.68 20 7 C18.88625 7.309375 18.88625 7.309375 17.75 7.625 C15 8 15 8 13.1875 7.0625 C9.81058165 5.42228252 6.72588918 5.87580369 3 6 C2.01 4.02 1.02 2.04 0 0 Z " fill="#518C5D" transform="translate(30,80)"/>
<path d="M0 0 C3 1 3 1 4 2.9375 C4.33 3.618125 4.66 4.29875 5 5 C5.99 5.66 6.98 6.32 8 7 C7.34 7 6.68 7 6 7 C6 7.66 6 8.32 6 9 C5.34 9 4.68 9 4 9 C3.67 9.66 3.34 10.32 3 11 C2.34 11 1.68 11 1 11 C0.01 11.33 -0.98 11.66 -2 12 C-4.40072955 9.11912454 -6.47291037 6.43595166 -8 3 C-6.125 2.375 -6.125 2.375 -4 2 C-3.34 2.66 -2.68 3.32 -2 4 C-2 3.34 -2 2.68 -2 2 C-1.34 2 -0.68 2 0 2 C0 1.34 0 0.68 0 0 Z " fill="#93B192" transform="translate(25,61)"/>
<path d="M0 0 C0.433125 0.495 0.86625 0.99 1.3125 1.5 C2.99740483 3.33218192 2.99740483 3.33218192 6 3 C6.99 3 7.98 3 9 3 C9.33 2.34 9.66 1.68 10 1 C10 1.66 10 2.32 10 3 C10.66 3 11.32 3 12 3 C12 6.3 12 9.6 12 13 C11.67 13 11.34 13 11 13 C11 10.36 11 7.72 11 5 C8.81668311 6.76136355 8.81668311 6.76136355 8.8046875 8.9453125 C8.82789062 9.66460937 8.85109375 10.38390625 8.875 11.125 C8.91625 12.40375 8.9575 13.6825 9 15 C8.67 15 8.34 15 8 15 C7.67 12.69 7.34 10.38 7 8 C6.34 8 5.68 8 5 8 C3.375 6.5 3.375 6.5 2 5 C2.185625 6.27875 2.37125 7.5575 2.5625 8.875 C3.125 12.75 3.125 12.75 2 15 C1.64080679 16.99551782 1.30503431 18.99548879 1 21 C0.67 21 0.34 21 0 21 C-0.19461488 18.06281233 -0.38097593 15.12550068 -0.5625 12.1875 C-0.61857422 11.35412109 -0.67464844 10.52074219 -0.73242188 9.66210938 C-0.78076172 8.85966797 -0.82910156 8.05722656 -0.87890625 7.23046875 C-0.9260376 6.49207764 -0.97316895 5.75368652 -1.02172852 4.99291992 C-1 3 -1 3 0 0 Z " fill="#3D783F" transform="translate(89,35)"/>
<path d="M0 0 C1.2065625 0.0309375 1.2065625 0.0309375 2.4375 0.0625 C2.1075 1.7125 1.7775 3.3625 1.4375 5.0625 C4.4075 5.5575 4.4075 5.5575 7.4375 6.0625 C7.4375 6.3925 7.4375 6.7225 7.4375 7.0625 C-0.9775 7.5575 -0.9775 7.5575 -9.5625 8.0625 C-9.8925 7.0725 -10.2225 6.0825 -10.5625 5.0625 C-11.2225 5.0625 -11.8825 5.0625 -12.5625 5.0625 C-12.2325 3.7425 -11.9025 2.4225 -11.5625 1.0625 C-10.263125 1.083125 -8.96375 1.10375 -7.625 1.125 C-6.27084367 1.14649454 -4.91493917 1.13398199 -3.5625 1.0625 C-2.5625 0.0625 -2.5625 0.0625 0 0 Z " fill="#D0DED1" transform="translate(77.5625,81.9375)"/>
<path d="M0 0 C1.99097846 2.98646769 2.94124926 5.59687262 4 9 C4.99 9 5.98 9 7 9 C7.66 8.01 8.32 7.02 9 6 C9 6.99 9 7.98 9 9 C9.66 9 10.32 9 11 9 C11.33 7.68 11.66 6.36 12 5 C14.53833449 6.26916725 14.89400901 7.41624809 16.125 9.9375 C16.47820313 10.64777344 16.83140625 11.35804687 17.1953125 12.08984375 C18 14 18 14 18 16 C15 15 15 15 13.9375 13 C13.628125 12.34 13.31875 11.68 13 11 C12.34 10.67 11.68 10.34 11 10 C11 10.66 11 11.32 11 12 C10.34 12 9.68 12 9 12 C9.33 13.32 9.66 14.64 10 16 C9.608125 15.505 9.21625 15.01 8.8125 14.5 C6.44908285 12.54406857 4.98564997 12.75792027 2 13 C1.46605821 11.5882217 0.94834896 10.17029756 0.4375 8.75 C0.14746094 7.96109375 -0.14257812 7.1721875 -0.44140625 6.359375 C-1.04522837 3.80896548 -0.8473932 2.44677771 0 0 Z " fill="#2F773D" transform="translate(14,51)"/>
<path d="M0 0 C1.45922693 0.11409593 2.91740598 0.24165544 4.375 0.375 C5.59316406 0.47941406 5.59316406 0.47941406 6.8359375 0.5859375 C9 1 9 1 11 3 C9.35 3.33 7.7 3.66 6 4 C6.99 5.98 7.98 7.96 9 10 C1.575 9.01 1.575 9.01 -6 8 C-4.68 7.34 -3.36 6.68 -2 6 C-0.70768358 2.95800528 -0.70768358 2.95800528 0 0 Z " fill="#F1F5F1" transform="translate(88,86)"/>
<path d="M0 0 C5.61 0 11.22 0 17 0 C16.67 1.32 16.34 2.64 16 4 C16.66 4.66 17.32 5.32 18 6 C18.33 6.66 18.66 7.32 19 8 C19.66 8.33 20.32 8.66 21 9 C10.44191344 9.18451025 10.44191344 9.18451025 6 8 C6.66 7.34 7.32 6.68 8 6 C8.99 6 9.98 6 11 6 C11.33 4.68 11.66 3.36 12 2 C11.30132812 2.02320312 10.60265625 2.04640625 9.8828125 2.0703125 C8.97273438 2.08835937 8.06265625 2.10640625 7.125 2.125 C6.22007813 2.14820312 5.31515625 2.17140625 4.3828125 2.1953125 C2 2 2 2 0 0 Z " fill="#F6F9F6" transform="translate(50,68)"/>
<path d="M0 0 C0 3 0 3 -2 6 C-2.68255989 8.32873375 -3.35050775 10.66182791 -4 13 C-4.33 13.33 -4.66 13.66 -5 14 C-5.36760731 16.32817964 -5.70241581 18.6618385 -6 21 C-6.33 21 -6.66 21 -7 21 C-7.66 19.02 -8.32 17.04 -9 15 C-9.66 15 -10.32 15 -11 15 C-11 14.34 -11 13.68 -11 13 C-10.34 13 -9.68 13 -9 13 C-9.33 10.36 -9.66 7.72 -10 5 C-9.34 4.67 -8.68 4.34 -8 4 C-7.34 4.66 -6.68 5.32 -6 6 C-3.81509993 3.32357511 -3.81509993 3.32357511 -4 1 C-2.68 0.67 -1.36 0.34 0 0 Z " fill="#AB9775" transform="translate(73,24)"/>
<path d="M0 0 C0.99 2.31 1.98 4.62 3 7 C-0.63 7.66 -4.26 8.32 -8 9 C-7.67 7.35 -7.34 5.7 -7 4 C-8.65 3.67 -10.3 3.34 -12 3 C-8.6463584 -0.3536416 -4.57608788 0 0 0 Z " fill="#F6F8F5" transform="translate(26,86)"/>
<path d="M0 0 C0.99 0.33 1.98 0.66 3 1 C2.43410156 1.75925781 1.86820313 2.51851563 1.28515625 3.30078125 C0.55167969 4.29464844 -0.18179688 5.28851563 -0.9375 6.3125 C-2.03384766 7.79169922 -2.03384766 7.79169922 -3.15234375 9.30078125 C-5.12530656 11.91771863 -5.12530656 11.91771863 -6 15 C-5.34 15 -4.68 15 -4 15 C-4.66 16.32 -5.32 17.64 -6 19 C-6.66 18.34 -7.32 17.68 -8 17 C-9.31747324 16.30251417 -10.64914193 15.63040043 -12 15 C-11.01 15 -10.02 15 -9 15 C-8.7834375 14.071875 -8.7834375 14.071875 -8.5625 13.125 C-8 11 -8 11 -7 9 C-8.32 8.67 -9.64 8.34 -11 8 C-11.33 6.68 -11.66 5.36 -12 4 C-11.67 4.66 -11.34 5.32 -11 6 C-7.66857722 6.50125283 -7.66857722 6.50125283 -4 6 C-1.50459629 3.13384514 -1.50459629 3.13384514 0 0 Z " fill="#547D4B" transform="translate(94,65)"/>
<path d="M0 0 C4.34464536 0.60825035 8.67551867 1.26167392 13 2 C11.02 2.99 11.02 2.99 9 4 C9 4.99 9 5.98 9 7 C8.113125 7.144375 7.22625 7.28875 6.3125 7.4375 C3.52882354 7.91019978 0.76516243 8.43070185 -2 9 C-2 8.01 -2 7.02 -2 6 C-1.34 6 -0.68 6 0 6 C0 4.02 0 2.04 0 0 Z " fill="#497C45" transform="translate(60,4)"/>
<path d="M0 0 C0.721875 0.0825 1.44375 0.165 2.1875 0.25 C2.1875 0.91 2.1875 1.57 2.1875 2.25 C2.8475 2.25 3.5075 2.25 4.1875 2.25 C4.1875 2.91 4.1875 3.57 4.1875 4.25 C1.1875 6.25 1.1875 6.25 -1.5 5.875 C-2.263125 5.66875 -3.02625 5.4625 -3.8125 5.25 C-3.8125 5.91 -3.8125 6.57 -3.8125 7.25 C-6.1225 7.25 -8.4325 7.25 -10.8125 7.25 C-11.4725 5.93 -12.1325 4.61 -12.8125 3.25 C-11.7296875 3.62125 -11.7296875 3.62125 -10.625 4 C-5.90266847 4.4197628 -4.63498041 0.41199826 0 0 Z " fill="#B8A78A" transform="translate(58.8125,50.75)"/>
<path d="M0 0 C0.763125 0.20625 1.52625 0.4125 2.3125 0.625 C2.3125 3.595 2.3125 6.565 2.3125 9.625 C0.6625 9.295 -0.9875 8.965 -2.6875 8.625 C-3.0175 9.285 -3.3475 9.945 -3.6875 10.625 C-4.3475 10.625 -5.0075 10.625 -5.6875 10.625 C-5.76846803 9.16757537 -5.82667774 7.70887193 -5.875 6.25 C-5.90980469 5.43789063 -5.94460937 4.62578125 -5.98046875 3.7890625 C-5.88378906 3.07492188 -5.78710938 2.36078125 -5.6875 1.625 C-2.6875 -0.375 -2.6875 -0.375 0 0 Z " fill="#E5DFD5" transform="translate(62.6875,38.375)"/>
<path d="M0 0 C2.31 0.33 4.62 0.66 7 1 C6.01 1.495 6.01 1.495 5 2 C5 2.66 5 3.32 5 4 C6.65 4 8.3 4 10 4 C10 5.65 10 7.3 10 9 C9.01 9 8.02 9 7 9 C6.67 8.34 6.34 7.68 6 7 C5.4225 7.2475 4.845 7.495 4.25 7.75 C3.5075 7.8325 2.765 7.915 2 8 C-0.25 6.0625 -0.25 6.0625 -2 4 C-1.34 3.67 -0.68 3.34 0 3 C0 2.01 0 1.02 0 0 Z " fill="#B3CDB8" transform="translate(67,68)"/>
<path d="M0 0 C2.64 0.99 5.28 1.98 8 3 C7.67 4.65 7.34 6.3 7 8 C8.32 8 9.64 8 11 8 C11 8.66 11 9.32 11 10 C8.04335481 11.4783226 5.25770263 11.06032783 2 11 C2.66 9.02 3.32 7.04 4 5 C1.525 4.01 1.525 4.01 -1 3 C-0.67 2.01 -0.34 1.02 0 0 Z " fill="#568242" transform="translate(11,87)"/>
<path d="M0 0 C2.375 0.3125 2.375 0.3125 5 1 C5.66 1.99 6.32 2.98 7 4 C7.825 4 8.65 4 9.5 4 C10.325 4 11.15 4 12 4 C12.99 5.485 12.99 5.485 14 7 C8.06 7.495 8.06 7.495 2 8 C1.01 6.35 0.02 4.7 -1 3 C-0.67 2.01 -0.34 1.02 0 0 Z " fill="#F4F7F4" transform="translate(27,81)"/>
<path d="M0 0 C1.98 0 3.96 0 6 0 C6.625 1.8125 6.625 1.8125 7 4 C6.01 5.485 6.01 5.485 5 7 C2.6171875 7.29296875 2.6171875 7.29296875 -0.125 7.1875 C-1.03507812 7.16042969 -1.94515625 7.13335937 -2.8828125 7.10546875 C-3.58148438 7.07066406 -4.28015625 7.03585938 -5 7 C-3.68 6.67 -2.36 6.34 -1 6 C-0.67 4.02 -0.34 2.04 0 0 Z " fill="#FAFBFA" transform="translate(80,81)"/>
<path d="M0 0 C-0.33 0.61875 -0.66 1.2375 -1 1.875 C-2.14193235 3.91018344 -2.14193235 3.91018344 -2 6 C-1.01 5.01 -0.02 4.02 1 3 C0.1875 5.9375 0.1875 5.9375 -1 9 C-4 10 -4 10 -7 10 C-7.66 9.67 -8.32 9.34 -9 9 C-8.09729807 5.30712847 -7.59508949 3.44631711 -4.5 1.125 C-2 0 -2 0 0 0 Z " fill="#94B395" transform="translate(89,62)"/>
<path d="M0 0 C3 1 3 1 5 2 C4.7452486 3.31571603 4.47065859 4.62760376 4.1875 5.9375 C4.03667969 6.66839844 3.88585938 7.39929687 3.73046875 8.15234375 C3.48941406 8.76207031 3.24835937 9.37179688 3 10 C2.01 10.33 1.02 10.66 0 11 C-0.0825 10.4225 -0.165 9.845 -0.25 9.25 C-1.20531013 6.3840696 -2.78469173 5.0009236 -5 3 C-3.35 2.67 -1.7 2.34 0 2 C0 1.34 0 0.68 0 0 Z " fill="#B5A385" transform="translate(58,27)"/>
<path d="M0 0 C6.27 0.33 12.54 0.66 19 1 C19 1.33 19 1.66 19 2 C11.24575135 2.84903327 3.60953932 3.12751701 -4.1875 3.0625 C-5.75854492 3.05573242 -5.75854492 3.05573242 -7.36132812 3.04882812 C-9.90761536 3.03720124 -12.4537746 3.02086281 -15 3 C-15 2.67 -15 2.34 -15 2 C-10.05 1.67 -5.1 1.34 0 1 C0 0.67 0 0.34 0 0 Z " fill="#317941" transform="translate(66,78)"/>
<path d="M0 0 C0.598125 0.185625 1.19625 0.37125 1.8125 0.5625 C4.16408762 1.22093687 4.16408762 1.22093687 7 0 C9.26171875 0.33984375 9.26171875 0.33984375 11.6875 0.9375 C12.49574219 1.13214844 13.30398437 1.32679687 14.13671875 1.52734375 C15.05904297 1.76130859 15.05904297 1.76130859 16 2 C16 2.33 16 2.66 16 3 C7.42 3.33 -1.16 3.66 -10 4 C-6.00889681 2.0044484 -4.30013434 1.80453935 0 2 C0 1.34 0 0.68 0 0 Z " fill="#E8EFE8" transform="translate(45,74)"/>
<path d="M0 0 C2.31 0.33 4.62 0.66 7 1 C5.68 1.33 4.36 1.66 3 2 C3 2.99 3 3.98 3 5 C0.03 5.66 -2.94 6.32 -6 7 C-6 5.35 -6 3.7 -6 2 C-4.02 2 -2.04 2 0 2 C0 1.34 0 0.68 0 0 Z " fill="#4A8856" transform="translate(45,70)"/>
<path d="M0 0 C0.33 0.99 0.66 1.98 1 3 C1.66 3 2.32 3 3 3 C3.66 4.32 4.32 5.64 5 7 C-2.75 7.125 -2.75 7.125 -5 6 C-6.53668865 5.77532169 -8.07968054 5.59203195 -9.625 5.4375 C-10.44226563 5.35371094 -11.25953125 5.26992187 -12.1015625 5.18359375 C-12.72804688 5.12300781 -13.35453125 5.06242187 -14 5 C-14 4.67 -14 4.34 -14 4 C-4.58997722 2.66742597 -4.58997722 2.66742597 0 4 C0 2.68 0 1.36 0 0 Z " fill="#507D43" transform="translate(96,91)"/>
<path d="M0 0 C4.875 1.875 4.875 1.875 6 3 C6.04092937 5.33297433 6.04241723 7.66705225 6 10 C4.35 9.67 2.7 9.34 1 9 C0.67 6.03 0.34 3.06 0 0 Z " fill="#AAC6AE" transform="translate(91,40)"/>
<path d="M0 0 C-0.04125 0.7425 -0.0825 1.485 -0.125 2.25 C0.00398134 5.08758952 0.57051222 6.58773938 2 9 C-0.31 9 -2.62 9 -5 9 C-5 8.34 -5 7.68 -5 7 C-5.66 6.34 -6.32 5.68 -7 5 C-6.01 4.67 -5.02 4.34 -4 4 C-4.33 3.01 -4.66 2.02 -5 1 C-3 0 -3 0 0 0 Z " fill="#3E773E" transform="translate(54,3)"/>
<path d="M0 0 C1.9453125 -0.29296875 1.9453125 -0.29296875 4.125 -0.1875 C5.40375 -0.125625 6.6825 -0.06375 8 0 C7.67 0.61875 7.34 1.2375 7 1.875 C5.85806765 3.91018344 5.85806765 3.91018344 6 6 C4.02 6.66 2.04 7.32 0 8 C-0.33 7.01 -0.66 6.02 -1 5 C-0.67 4.67 -0.34 4.34 0 4 C-0.66 3.67 -1.32 3.34 -2 3 C-1.34 2.01 -0.68 1.02 0 0 Z " fill="#3B7B3D" transform="translate(40,6)"/>
<path d="M0 0 C2.04159095 -0.0272616 4.08328963 -0.04651345 6.125 -0.0625 C7.26195312 -0.07410156 8.39890625 -0.08570312 9.5703125 -0.09765625 C12.8129156 -0.005327 15.81932612 0.38610094 19 1 C18.67 1.99 18.34 2.98 18 4 C11.91766294 3.32418477 5.98685848 2.26361972 0 1 C0 0.67 0 0.34 0 0 Z " fill="#F5F7F4" transform="translate(32,80)"/>
<path d="M0 0 C0.33 0.66 0.66 1.32 1 2 C1.66 2 2.32 2 3 2 C3 5.3 3 8.6 3 12 C2.67 12 2.34 12 2 12 C2 9.36 2 6.72 2 4 C-0.18331689 5.76136355 -0.18331689 5.76136355 -0.1953125 7.9453125 C-0.17210938 8.66460937 -0.14890625 9.38390625 -0.125 10.125 C-0.08375 11.40375 -0.0425 12.6825 0 14 C-0.33 14 -0.66 14 -1 14 C-1.33 11.69 -1.66 9.38 -2 7 C-2.66 7 -3.32 7 -4 7 C-4.33 5.68 -4.66 4.36 -5 3 C-3.35 2.67 -1.7 2.34 0 2 C0 1.34 0 0.68 0 0 Z " fill="#2E763C" transform="translate(98,36)"/>
<path d="M0 0 C1.98 0.66 3.96 1.32 6 2 C5.67 4.31 5.34 6.62 5 9 C4.34 9 3.68 9 3 9 C2.67 8.01 2.34 7.02 2 6 C1.01 7.32 0.02 8.64 -1 10 C-1.02689216 8.52093108 -1.04634621 7.04172517 -1.0625 5.5625 C-1.07410156 4.73878906 -1.08570313 3.91507813 -1.09765625 3.06640625 C-1 1 -1 1 0 0 Z " fill="#E8E3DA" transform="translate(51,37)"/>
<path d="M0 0 C0.99 0 1.98 0 3 0 C3.33 1.32 3.66 2.64 4 4 C5.32 4.33 6.64 4.66 8 5 C7.1875 6.9375 7.1875 6.9375 6 9 C5.01 9.33 4.02 9.66 3 10 C3 9.01 3 8.02 3 7 C2.01 7 1.02 7 0 7 C-0.66 6.67 -1.32 6.34 -2 6 C-1.01 5.67 -0.02 5.34 1 5 C0.67 3.35 0.34 1.7 0 0 Z " fill="#34763C" transform="translate(33,11)"/>
<path d="M0 0 C0.33 0 0.66 0 1 0 C1.38971999 2.10149011 1.76131477 4.2063482 2.125 6.3125 C2.33382813 7.48425781 2.54265625 8.65601563 2.7578125 9.86328125 C3 13 3 13 1 16 C0.34 16 -0.32 16 -1 16 C-1.66 13.03 -2.32 10.06 -3 7 C-2.01 6.67 -1.02 6.34 0 6 C0 4.02 0 2.04 0 0 Z " fill="#89A97F" transform="translate(24,44)"/>
<path d="M0 0 C2.31 0 4.62 0 7 0 C7.33 1.32 7.66 2.64 8 4 C7.01 4 6.02 4 5 4 C5 4.66 5 5.32 5 6 C3.68 6 2.36 6 1 6 C1 5.34 1 4.68 1 4 C0.34 4 -0.32 4 -1 4 C-0.67 2.68 -0.34 1.36 0 0 Z " fill="#508B5C" transform="translate(66,83)"/>
<path d="M0 0 C3 1 3 1 4 2.9375 C4.33 3.618125 4.66 4.29875 5 5 C5.99 5.66 6.98 6.32 8 7 C7.34 7 6.68 7 6 7 C6 7.66 6 8.32 6 9 C5.34 9 4.68 9 4 9 C3.67 9.66 3.34 10.32 3 11 C2.01 8.69 1.02 6.38 0 4 C-0.66 4 -1.32 4 -2 4 C-2 3.34 -2 2.68 -2 2 C-1.34 2 -0.68 2 0 2 C0 1.34 0 0.68 0 0 Z " fill="#84AC83" transform="translate(25,61)"/>
<path d="M0 0 C3 1 3 1 5 3 C5.125 6.625 5.125 6.625 5 10 C3.35 9.67 1.7 9.34 0 9 C0 6.03 0 3.06 0 0 Z " fill="#C1D5C4" transform="translate(14,39)"/>
<path d="M0 0 C0.99 0.33 1.98 0.66 3 1 C3.84454356 4.37817425 4.10844919 6.67465243 3 10 C2.01 10 1.02 10 0 10 C-2.21538462 4.58461538 -2.21538462 4.58461538 -1.125 1.625 C-0.75375 1.08875 -0.3825 0.5525 0 0 Z " fill="#9D875F" transform="translate(52,28)"/>
<path d="M0 0 C2 2 2 2 3 5 C3.66 3.68 4.32 2.36 5 1 C5 2.65 5 4.3 5 6 C5.66 6.33 6.32 6.66 7 7 C4.66785852 8.20628008 2.50357861 9.1654738 0 10 C-1.2380014 6.42355152 -0.74926071 3.66305234 0 0 Z " fill="#5B7C4D" transform="translate(12,43)"/>
<path d="M0 0 C-0.185625 0.61875 -0.37125 1.2375 -0.5625 1.875 C-1.23686176 4.04160178 -1.23686176 4.04160178 0 6 C-0.99 6.33 -1.98 6.66 -3 7 C-4.5 5.625 -4.5 5.625 -6 4 C-6 3.34 -6 2.68 -6 2 C-6.99 1.67 -7.98 1.34 -9 1 C-5.64919071 -1.10976881 -3.77897651 -1.0497157 0 0 Z " fill="#739C74" transform="translate(42,9)"/>
<path d="M0 0 C0.66 0 1.32 0 2 0 C2 0.66 2 1.32 2 2 C2.66 2 3.32 2 4 2 C3.34 5.3 2.68 8.6 2 12 C1.67 12 1.34 12 1 12 C0.34 10.02 -0.32 8.04 -1 6 C-1.66 6 -2.32 6 -3 6 C-3 5.34 -3 4.68 -3 4 C-2.34 4 -1.68 4 -1 4 C-0.67 2.68 -0.34 1.36 0 0 Z " fill="#98835B" transform="translate(65,33)"/>
<path d="M0 0 C0.66 0 1.32 0 2 0 C2 0.66 2 1.32 2 2 C2.66 2 3.32 2 4 2 C3.34 3.98 2.68 5.96 2 8 C1.01 8 0.02 8 -1 8 C-2 6 -2 6 -1.0625 2.875 C-0.5365625 1.451875 -0.5365625 1.451875 0 0 Z " fill="#94B699" transform="translate(18,30)"/>
<path d="M0 0 C1.98 0.66 3.96 1.32 6 2 C4.9375 3.5 4.9375 3.5 3 5 C-0.5625 5.125 -0.5625 5.125 -4 5 C-4.99 5.495 -4.99 5.495 -6 6 C-6 5.01 -6 4.02 -6 3 C-5.34 3 -4.68 3 -4 3 C-3.67 2.34 -3.34 1.68 -3 1 C-3 1.66 -3 2.32 -3 3 C-1.68 3 -0.36 3 1 3 C0.67 2.01 0.34 1.02 0 0 Z " fill="#7B9D73" transform="translate(64,7)"/>
<path d="M0 0 C2.0625 0.4375 2.0625 0.4375 4 1 C3.67 1.99 3.34 2.98 3 4 C1.0625 4.5625 1.0625 4.5625 -1 5 C-1.66 5.66 -2.32 6.32 -3 7 C-3.33 6.34 -3.66 5.68 -4 5 C-4.66 5 -5.32 5 -6 5 C-6 4.34 -6 3.68 -6 3 C-5.195625 2.690625 -4.39125 2.38125 -3.5625 2.0625 C-1.10919595 1.23664655 -1.10919595 1.23664655 0 0 Z " fill="#58814C" transform="translate(100,87)"/>
<path d="M0 0 C1.32 0.66 2.64 1.32 4 2 C3.34 4.97 2.68 7.94 2 11 C1.67 11 1.34 11 1 11 C1 9.35 1 7.7 1 6 C0.01 6 -0.98 6 -2 6 C-1.34 4.02 -0.68 2.04 0 0 Z " fill="#86A477" transform="translate(24,31)"/>
<path d="M0 0 C2.046875 3.71875 2.046875 3.71875 1.625 6.25 C1.41875 6.8275 1.2125 7.405 1 8 C0.34 8 -0.32 8 -1 8 C-0.34 8.66 0.32 9.32 1 10 C-0.32 10.99 -1.64 11.98 -3 13 C-4.23593891 9.29218328 -3.5678132 8.32489747 -2.0625 4.8125 C-1.68222656 3.91144531 -1.30195312 3.01039062 -0.91015625 2.08203125 C-0.60980469 1.39496094 -0.30945313 0.70789062 0 0 Z " fill="#668B5F" transform="translate(88,52)"/>
<path d="M0 0 C0.99 0.33 1.98 0.66 3 1 C0.69 3.31 -1.62 5.62 -4 8 C-5.32 7.34 -6.64 6.68 -8 6 C-7.05125 5.38125 -6.1025 4.7625 -5.125 4.125 C-2.05554891 2.18029031 -2.05554891 2.18029031 0 0 Z " fill="#46763F" transform="translate(32,24)"/>
<path d="M0 0 C0.66 0.33 1.32 0.66 2 1 C1.67 2.32 1.34 3.64 1 5 C0.360625 5.12375 -0.27875 5.2475 -0.9375 5.375 C-1.9584375 5.684375 -1.9584375 5.684375 -3 6 C-3.33 6.66 -3.66 7.32 -4 8 C-4.99 6.68 -5.98 5.36 -7 4 C-6.34 4 -5.68 4 -5 4 C-4.67 3.34 -4.34 2.68 -4 2 C-2.68 2 -1.36 2 0 2 C0 1.34 0 0.68 0 0 Z " fill="#30763D" transform="translate(31,68)"/>
<path d="M0 0 C-2.34914492 2.34914492 -3.95679446 2.73140357 -7.125 3.625 C-8.49011719 4.01558594 -8.49011719 4.01558594 -9.8828125 4.4140625 C-10.58148438 4.60742188 -11.28015625 4.80078125 -12 5 C-11.67 3.68 -11.34 2.36 -11 1 C-7.32589215 -0.17571451 -3.83070817 -0.07366746 0 0 Z " fill="#4B7B45" transform="translate(44,68)"/>
<path d="M0 0 C1.875 0.1875 1.875 0.1875 4 1 C5.25 3.5625 5.25 3.5625 6 6 C5.01 6.33 4.02 6.66 3 7 C1.5 5.75 1.5 5.75 0 4 C0 2.68 0 1.36 0 0 Z " fill="#88AB89" transform="translate(81,23)"/>
<path d="M0 0 C0 0.99 0 1.98 0 3 C-1.65 2.67 -3.3 2.34 -5 2 C-5 3.32 -5 4.64 -5 6 C-7.31 5.67 -9.62 5.34 -12 5 C-10.125 3.9375 -10.125 3.9375 -8 3 C-7.34 3.33 -6.68 3.66 -6 4 C-6 3.01 -6 2.02 -6 1 C-3 0 -3 0 0 0 Z " fill="#9D8864" transform="translate(58,15)"/>
<path d="M0 0 C2.475 0.495 2.475 0.495 5 1 C5 1.66 5 2.32 5 3 C5.99 3 6.98 3 8 3 C8 3.99 8 4.98 8 6 C6.35 6 4.7 6 3 6 C2.01 4.02 1.02 2.04 0 0 Z " fill="#78A581" transform="translate(30,80)"/>
<path d="M0 0 C0.33 0 0.66 0 1 0 C1 2.64 1 5.28 1 8 C-1.97 7.505 -1.97 7.505 -5 7 C-4.34 5.02 -3.68 3.04 -3 1 C-2.67 1 -2.34 1 -2 1 C-2 2.65 -2 4.3 -2 6 C-1.34 6 -0.68 6 0 6 C0 4.02 0 2.04 0 0 Z " fill="#AF9C7B" transform="translate(56,40)"/>
<path d="M0 0 C0 3 0 3 -2 6 C-2.38499891 7.65549531 -2.72793135 9.3222433 -3 11 C-5.13562754 8.86437246 -5.63318342 7.93453261 -6 5 C-5.34 4.34 -4.68 3.68 -4 3 C-4 2.34 -4 1.68 -4 1 C-2.68 0.67 -1.36 0.34 0 0 Z " fill="#9D7C56" transform="translate(73,24)"/>
<path d="M0 0 C1.41623216 -0.05447047 2.83308191 -0.09300508 4.25 -0.125 C5.03890625 -0.14820312 5.8278125 -0.17140625 6.640625 -0.1953125 C9.20731941 0.0171622 10.7916067 0.71345895 13 2 C8.15507803 3.51403812 4.7408989 2.36602172 0 1 C0 0.67 0 0.34 0 0 Z " fill="#457C46" transform="translate(35,89)"/>
<path d="M0 0 C2 3.875 2 3.875 2 5 C-0.31 5 -2.62 5 -5 5 C-5.66 3.68 -6.32 2.36 -7 1 C-5.824375 1.309375 -5.824375 1.309375 -4.625 1.625 C-3.75875 1.74875 -2.8925 1.8725 -2 2 C-1.34 1.34 -0.68 0.68 0 0 Z " fill="#AE9B79" transform="translate(53,53)"/>
<path d="M0 0 C2.10827055 3.16240582 2.33817465 4.50657469 2.625 8.1875 C2.69976563 9.08855469 2.77453125 9.98960938 2.8515625 10.91796875 C2.90054687 11.60503906 2.94953125 12.29210938 3 13 C1.12396022 10.18594033 0.50907198 8.59075334 -0.1875 5.375 C-0.36667969 4.57835937 -0.54585937 3.78171875 -0.73046875 2.9609375 C-0.81941406 2.31382813 -0.90835937 1.66671875 -1 1 C-0.67 0.67 -0.34 0.34 0 0 Z " fill="#497944" transform="translate(14,51)"/>
<path d="M0 0 C2.5371542 1.2685771 3.49693317 2.60875731 5 5 C5 6.32 5 7.64 5 9 C4.34 9 3.68 9 3 9 C2.9071875 7.824375 2.9071875 7.824375 2.8125 6.625 C2.544375 5.75875 2.27625 4.8925 2 4 C-0.47636012 2.62533375 -0.47636012 2.62533375 -3 2 C-2.01 1.34 -1.02 0.68 0 0 Z " fill="#507340" transform="translate(76,17)"/>
<path d="M0 0 C0.103125 0.61875 0.20625 1.2375 0.3125 1.875 C0.87525373 4.36526484 0.87525373 4.36526484 4 6 C3.34 7.32 2.68 8.64 2 10 C1.34 9.67 0.68 9.34 0 9 C-0.44921875 7.1875 -0.44921875 7.1875 -0.6875 5 C-0.77386719 4.278125 -0.86023437 3.55625 -0.94921875 2.8125 C-0.96597656 2.214375 -0.98273437 1.61625 -1 1 C-0.67 0.67 -0.34 0.34 0 0 Z " fill="#98845C" transform="translate(46,28)"/>
<path d="M0 0 C1.36511719 0.29197266 1.36511719 0.29197266 2.7578125 0.58984375 C3.45648438 0.74582031 4.15515625 0.90179688 4.875 1.0625 C4.875 1.3925 4.875 1.7225 4.875 2.0625 C0.915 2.0625 -3.045 2.0625 -7.125 2.0625 C-7.125 1.4025 -7.125 0.7425 -7.125 0.0625 C-4.4030754 -1.2984623 -2.9418043 -0.64116248 0 0 Z " fill="#D0DED2" transform="translate(56.125,74.9375)"/>
<path d="M0 0 C4.85795219 0.26497921 6.47967572 0.47967572 10 4 C4.06 3.01 4.06 3.01 -2 2 C-1.34 1.34 -0.68 0.68 0 0 Z " fill="#477E48" transform="translate(71,67)"/>
<path d="M0 0 C2.18975773 3.28463659 2.99806563 6.20696275 4 10 C4.66 10 5.32 10 6 10 C5.67 10.66 5.34 11.32 5 12 C4.34 11.67 3.68 11.34 3 11 C3 10.34 3 9.68 3 9 C2.34 9 1.68 9 1 9 C-1.125 3.375 -1.125 3.375 0 0 Z " fill="#617F4D" transform="translate(96,27)"/>
<path d="M0 0 C0.99 0.33 1.98 0.66 3 1 C2.67 1.99 2.34 2.98 2 4 C2.66 4.33 3.32 4.66 4 5 C3.34 5 2.68 5 2 5 C1.67 5.66 1.34 6.32 1 7 C-0.32 5.68 -1.64 4.36 -3 3 C-2.01 3 -1.02 3 0 3 C0 2.01 0 1.02 0 0 Z " fill="#BFB197" transform="translate(49,22)"/>
<path d="M0 0 C0.66 0 1.32 0 2 0 C1.8125 2.375 1.8125 2.375 1 5 C-1.5625 6.3125 -1.5625 6.3125 -4 7 C-4.33 5.68 -4.66 4.36 -5 3 C-4.360625 2.87625 -3.72125 2.7525 -3.0625 2.625 C-2.0415625 2.315625 -2.0415625 2.315625 -1 2 C-0.67 1.34 -0.34 0.68 0 0 Z " fill="#65996E" transform="translate(85,87)"/>
<path d="M0 0 C1.2065625 0.0309375 1.2065625 0.0309375 2.4375 0.0625 C2.4375 1.7125 2.4375 3.3625 2.4375 5.0625 C1.4475 5.0625 0.4575 5.0625 -0.5625 5.0625 C-2.25 3.0625 -2.25 3.0625 -3.5625 1.0625 C-2.5625 0.0625 -2.5625 0.0625 0 0 Z " fill="#689B73" transform="translate(74.5625,71.9375)"/>
<path d="M0 0 C0.33 1.32 0.66 2.64 1 4 C2.98 4 4.96 4 7 4 C7 4.33 7 4.66 7 5 C2.48382401 5.07654536 -1.59085217 5.10228696 -6 4 C-5.38125 3.71125 -4.7625 3.4225 -4.125 3.125 C-1.86674235 2.06279958 -1.86674235 2.06279958 0 0 Z " fill="#CFDFD2" transform="translate(73,74)"/>
<path d="M0 0 C2.64465038 3.1254959 3.84414715 6.08788267 5 10 C2 9 2 9 0.25 6.125 C-1 3 -1 3 0 0 Z " fill="#4B7C45" transform="translate(27,57)"/>
<path d="M0 0 C1.65 0 3.3 0 5 0 C5.33 0.99 5.66 1.98 6 3 C5.34 3.66 4.68 4.32 4 5 C1.525 4.01 1.525 4.01 -1 3 C-0.67 2.01 -0.34 1.02 0 0 Z " fill="#D4CBB9" transform="translate(47,51)"/>
<path d="M0 0 C2.97 0.495 2.97 0.495 6 1 C5.625 2.9375 5.625 2.9375 5 5 C4.01 5.495 4.01 5.495 3 6 C2.34 5.01 1.68 4.02 1 3 C0.34 3 -0.32 3 -1 3 C-0.67 2.01 -0.34 1.02 0 0 Z " fill="#9D865E" transform="translate(51,47)"/>
<path d="M0 0 C0 1.65 0 3.3 0 5 C-1.32 5 -2.64 5 -4 5 C-4 4.34 -4 3.68 -4 3 C-4.66 2.67 -5.32 2.34 -6 2 C-3 0 -3 0 0 0 Z " fill="#689C73" transform="translate(54,84)"/>
<path d="M0 0 C0.66 0.33 1.32 0.66 2 1 C2 1.66 2 2.32 2 3 C1.01 3 0.02 3 -1 3 C-1 3.99 -1 4.98 -1 6 C-2.98 6 -4.96 6 -7 6 C-6 4 -6 4 -2.9375 2.875 C-1.4834375 2.441875 -1.4834375 2.441875 0 2 C0 1.34 0 0.68 0 0 Z " fill="#A48F6A" transform="translate(63,53)"/>
<path d="M0 0 C1.0625 1.8125 1.0625 1.8125 2 4 C1.67 4.99 1.34 5.98 1 7 C-0.32303717 7.3721042 -1.65737935 7.70630173 -3 8 C-3.33 8.66 -3.66 9.32 -4 10 C-4 9.01 -4 8.02 -4 7 C-3.34 7 -2.68 7 -2 7 C-1.34 4.69 -0.68 2.38 0 0 Z " fill="#617D4B" transform="translate(16,29)"/>
<path d="M0 0 C0.66 0 1.32 0 2 0 C2 1.66666667 2 3.33333333 2 5 C0.125 6.0625 0.125 6.0625 -2 7 C-2.66 6.67 -3.32 6.34 -4 6 C-2.84826645 3.53199953 -1.95216435 1.95216435 0 0 Z " fill="#95B698" transform="translate(32,14)"/>
<path d="M0 0 C2.64 0 5.28 0 8 0 C7.67 1.65 7.34 3.3 7 5 C6.67 4.34 6.34 3.68 6 3 C4.35 3 2.7 3 1 3 C0.67 2.01 0.34 1.02 0 0 Z " fill="#89AA7A" transform="translate(30,88)"/>
<path d="M0 0 C2.64 0 5.28 0 8 0 C8 0.66 8 1.32 8 2 C6.02 2.66 4.04 3.32 2 4 C1.34 2.68 0.68 1.36 0 0 Z " fill="#3D804B" transform="translate(53,71)"/>
<path d="M0 0 C0.66 0 1.32 0 2 0 C2 2.97 2 5.94 2 9 C1.34 9 0.68 9 0 9 C-0.87890625 2.84765625 -0.87890625 2.84765625 -1 1 C-0.67 0.67 -0.34 0.34 0 0 Z " fill="#CFDED0" transform="translate(98,40)"/>
<path d="M0 0 C1.65 0 3.3 0 5 0 C4.67 1.32 4.34 2.64 4 4 C2.35 4 0.7 4 -1 4 C-0.67 2.68 -0.34 1.36 0 0 Z " fill="#4B8856" transform="translate(75,82)"/>
<path d="M0 0 C0.33 0.66 0.66 1.32 1 2 C1.66 2.33 2.32 2.66 3 3 C2.01 5.31 1.02 7.62 0 10 C-0.33 10 -0.66 10 -1 10 C-0.67 6.7 -0.34 3.4 0 0 Z " fill="#587E51" transform="translate(98,54)"/>
<path d="M0 0 C1.32 0.33 2.64 0.66 4 1 C3.67 2.32 3.34 3.64 3 5 C1.35 5 -0.3 5 -2 5 C-2 4.34 -2 3.68 -2 3 C-1.01 3 -0.02 3 1 3 C0.67 2.01 0.34 1.02 0 0 Z " fill="#C8BBA5" transform="translate(64,53)"/>
<path d="M0 0 C0.33 0 0.66 0 1 0 C1.12375 1.134375 1.2475 2.26875 1.375 3.4375 C1.58125 4.613125 1.7875 5.78875 2 7 C2.66 7.33 3.32 7.66 4 8 C2.02 8.99 2.02 8.99 0 10 C0 6.7 0 3.4 0 0 Z " fill="#B2A081" transform="translate(65,40)"/>
<path d="M0 0 C0.66 0 1.32 0 2 0 C2 0.66 2 1.32 2 2 C2.99 2 3.98 2 5 2 C4.67 3.32 4.34 4.64 4 6 C1.525 5.01 1.525 5.01 -1 4 C-0.34 3.67 0.32 3.34 1 3 C0.67 2.01 0.34 1.02 0 0 Z " fill="#A18C65" transform="translate(55,19)"/>
<path d="M0 0 C0.66 0 1.32 0 2 0 C1.45276317 3.37462715 0.9451 5.08235 -1 8 C-1.99 7.67 -2.98 7.34 -4 7 C-2.68 4.69 -1.36 2.38 0 0 Z " fill="#4E7946" transform="translate(24,16)"/>
<path d="M0 0 C0.33 0.66 0.66 1.32 1 2 C2.65 2 4.3 2 6 2 C6 3.65 6 5.3 6 7 C5.67 6.34 5.34 5.68 5 5 C2.97536745 4.34786708 2.97536745 4.34786708 1 4 C0.67 2.68 0.34 1.36 0 0 Z " fill="#2F783E" transform="translate(82,69)"/>
<path d="M0 0 C0.66 0.33 1.32 0.66 2 1 C2 2.65 2 4.3 2 6 C0.0625 5.1875 0.0625 5.1875 -2 4 C-2.33 3.01 -2.66 2.02 -3 1 C-2.01 0.67 -1.02 0.34 0 0 Z " fill="#488756" transform="translate(68,70)"/>
<path d="M0 0 C0.66 0.33 1.32 0.66 2 1 C1.34 2.98 0.68 4.96 0 7 C-1.32 6.34 -2.64 5.68 -4 5 C-4 4.01 -4 3.02 -4 2 C-2.125 0.9375 -2.125 0.9375 0 0 Z " fill="#659266" transform="translate(36,17)"/>
</svg>
